<svg xmlns="http://www.w3.org/2000/svg" xmlns:xlink="http://www.w3.org/1999/xlink" version="1.1" x="0px" y="0px" viewBox="0 0 100 125" style="enable-background:new 0 0 100 100;" xml:space="preserve"><path d="M50,88.6c21.3,0,38.6-17.3,38.6-38.6S71.3,11.4,50,11.4c-21.3,0-38.6,17.3-38.6,38.6S28.7,88.6,50,88.6z M31,44.8  c1.7-1.7,4.3-1.7,6,0l8.1,8.1l16.2-16.2c1.7-1.7,4.3-1.7,6,0c1.7,1.7,1.7,4.3,0,6L48.1,61.8c-0.8,0.8-1.9,1.2-3,1.2s-2.2-0.4-3-1.2  l-11-11C29.4,49.1,29.4,46.5,31,44.8z" fill="#F58F1D"/></svg>
